<?xml version="1.0" encoding="utf-8"?>
<!-- Generator: Adobe Illustrator 18.0.0, SVG Export Plug-In . SVG Version: 6.00 Build 0)  -->
<!DOCTYPE svg PUBLIC "-//W3C//DTD SVG 1.1//EN" "http://www.w3.org/Graphics/SVG/1.1/DTD/svg11.dtd">
<svg version="1.1" id="Layer_1" xmlns="http://www.w3.org/2000/svg" xmlns:xlink="http://www.w3.org/1999/xlink" x="0px" y="0px"
	 width="260px" height="80px" viewBox="0 0 260 80" enable-background="new 0 0 260 80" xml:space="preserve">
<g>
	<path fill="#660000" d="M41.5,11.3c-0.2,0.9-1.7-0.1-3.9-0.1c-2.3,0-8.7,2.9-8.7,8.9c0,7.1,3,9.7,6.5,9.8c1.4,0,3.7-1.4,3.7-3.6
		c0.1-2.7-2.9-5.1-3-7c-0.1-1.8,1-2.9,2.7-2.9c4.7,0,8.4,6.3,8.6,12.7c0-0.1,0-0.3,0-0.4C47.5,22.2,44.3,15.7,41.5,11.3z"/>
	<path fill="#660000" d="M19.8,39c3.1,3.1,8,4.5,12.4,4.5c-9.3,0-14.7-7-14.7-15.5c0-7.8,4-10,4-14.8c0-3.1-2.1-5.1-4.7-5.1
		c-2.5,0-4.8,3.3-6.4,8c-0.1,1.3-0.2,2.7-0.2,4.2C10.3,27.3,16.7,36,19.8,39z"/>
	<path fill="#990000" d="M47.3,6C46.5,6,46,7.2,46,8.1c0,0.8,1.8,4.2-0.4,4.2c-1.8,0-1.3-1.9-1.3-3.1c0-0.5-1.1-2.1-2.4-2.1
		c-1.3,0-0.4,2.2-0.4,3.9c0,0.1,0,0.1,0,0.2c2.8,4.5,6,11,6,17.4c0,0.1,0,0.3,0,0.4c0,0.1,0,0.2,0,0.3c0,6.5-7,14.2-15.3,14.2
		c-4.4,0-9.4-1.5-12.4-4.5s-9.5-11.7-9.5-18.6c0-1.5,0.1-2.9,0.2-4.2C8.9,20.5,8,26,8,31c0,17.5,22,26.8,24.4,32.4
		c2.7-5.7,23.3-14.4,23.3-34C55.7,16.4,50.1,6,47.3,6z"/>
</g>
<g>
	<path d="M89.5,35.5c-2.2,0.7-6.2,1.7-10.3,1.7c-5.6,0-9.7-1.4-12.6-4.2c-2.8-2.7-4.4-6.7-4.4-11.2c0-10.3,7.5-16.1,17.6-16.1
		c4,0,7.1,0.8,8.6,1.5L87,12.8c-1.7-0.7-3.8-1.3-7.2-1.3c-5.8,0-10.2,3.3-10.2,10c0,6.4,4,10.1,9.7,10.1c1.6,0,2.9-0.2,3.4-0.5v-6.5
		H78v-5.5h11.5V35.5z"/>
	<path d="M113.3,23.8h-11.4v7.3h12.7v5.7H94.9V6H114v5.7h-12.1v6.4h11.4V23.8z"/>
	<path d="M119.4,36.9V6h8.2l6.4,11.3c1.8,3.3,3.7,7.1,5,10.6h0.1c-0.5-4.1-0.6-8.3-0.6-12.9V6h6.4v30.9h-7.3L131,25
		c-1.8-3.3-3.9-7.3-5.4-10.9l-0.1,0c0.2,4.1,0.3,8.4,0.3,13.5v9.3H119.4z"/>
	<path d="M169.4,23.8H158v7.3h12.7v5.7H151V6h19.1v5.7H158v6.4h11.4V23.8z"/>
	<path d="M175.5,6.4c2.2-0.4,5.6-0.6,9.3-0.6c4.6,0,7.8,0.7,10,2.4c1.8,1.5,2.8,3.6,2.8,6.5c0,3.9-2.8,6.6-5.5,7.6v0.1
		c2.2,0.9,3.3,2.9,4.1,5.8c1,3.5,1.9,7.5,2.5,8.7h-7.2c-0.5-0.9-1.2-3.4-2.2-7.2c-0.8-3.9-2.2-4.9-5-5h-2.1v12.1h-6.9V6.4z
		 M182.4,19.7h2.8c3.5,0,5.5-1.7,5.5-4.4c0-2.8-1.9-4.3-5.1-4.3c-1.7,0-2.7,0.1-3.2,0.2V19.7z"/>
	<path d="M209.7,6v30.9h-7V6H209.7z"/>
	<path d="M238.4,36c-1.3,0.6-4.2,1.3-7.9,1.3c-10.7,0-16.2-6.6-16.2-15.4c0-10.5,7.5-16.4,16.9-16.4c3.6,0,6.4,0.7,7.6,1.4l-1.4,5.5
		c-1.4-0.6-3.4-1.1-5.9-1.1c-5.5,0-9.9,3.3-9.9,10.2c0,6.2,3.7,10.1,9.9,10.1c2.1,0,4.4-0.5,5.8-1L238.4,36z"/>
</g>
<g>
	<path d="M75.9,51.9c0.4,0,0.7,0.2,1,0.7c0.3,0.5,0.4,1.2,0.4,2.1c0,1.1-0.2,2.1-0.6,3.1c-0.4,1-0.9,1.8-1.6,2.6
		c-0.6,0.7-1.3,1.3-2,1.8c-0.7,0.4-1.4,0.7-2,0.7c-0.5,0-0.9-0.2-1.2-0.6c-0.3-0.4-0.4-1-0.4-1.8c0-0.3,0-0.7,0-1.1
		c0-0.4,0.1-0.8,0.1-1.2c0.1-0.4,0.1-0.8,0.2-1.2c0.1-0.4,0.1-0.7,0.2-1c-0.6,0.7-1.2,1.6-1.8,2.6c-0.6,1-1.3,2.1-1.9,3.1
		c-0.2,0.5-0.4,0.8-0.6,0.9c-0.2,0.1-0.3,0.2-0.6,0.2c-0.2,0-0.3-0.2-0.3-0.5c0.2-0.7,0.4-1.5,0.5-2.5s0.2-2,0.2-2.9
		c0-1-0.1-1.8-0.2-2.5c-0.1-0.7-0.4-1.1-0.7-1.3c-0.2-0.1-0.4,0-0.7,0.1c-0.3,0.1-0.5,0.4-0.6,0.7c-0.1,0.1-0.1,0-0.2,0
		S63,53.7,63,53.6c0.1-0.1,0.2-0.3,0.3-0.5c0.2-0.2,0.4-0.4,0.6-0.5c0.2-0.2,0.5-0.3,0.7-0.4c0.3-0.1,0.5-0.2,0.7-0.2
		c0.5,0,0.9,0.3,1.2,1c0.3,0.7,0.4,1.9,0.4,3.5c0,0.7,0,1.4-0.1,2c-0.1,0.6-0.1,1.1-0.2,1.6c0.6-1,1.1-1.8,1.6-2.5s1-1.4,1.5-2
		c0.2-0.2,0.3-0.5,0.4-0.8c0.1-0.3,0.3-0.7,0.4-1.3c0-0.1,0.1-0.2,0.3-0.4c0.2-0.1,0.3-0.2,0.5-0.3c0.2-0.1,0.3-0.1,0.4-0.2
		s0.2,0,0.2,0.1c-0.4,0.9-0.8,2-1,3.3c-0.2,1.2-0.4,2.4-0.4,3.4c0,1.4,0.5,2,1.5,2c0.5,0,1-0.2,1.5-0.5c0.5-0.3,1-0.7,1.4-1.3
		c0.4-0.5,0.8-1.1,1-1.8c0.3-0.7,0.4-1.4,0.4-2.2c0-1.1-0.2-1.8-0.7-2.1c-0.4-0.3-0.9-0.3-1.4,0.1c-0.2,0.1-0.3,0-0.3-0.3
		c0.1-0.1,0.2-0.3,0.3-0.5c0.1-0.2,0.3-0.3,0.5-0.5c0.2-0.2,0.4-0.3,0.5-0.4C75.6,52,75.8,51.9,75.9,51.9z"/>
	<path d="M80,54.9c-0.1,0.1-0.2,0-0.2-0.1c-0.1-0.1-0.1-0.2,0-0.3c0.4-0.4,0.9-0.9,1.6-1.4s1.4-0.9,2-1.3c0.2,0,0.3,0.1,0.3,0.4
		c-0.4,0.7-0.7,1.4-1.1,2.1c-0.4,0.8-0.7,1.5-0.9,2.3c-0.3,0.8-0.5,1.5-0.7,2.2c-0.2,0.7-0.3,1.3-0.3,1.7c0,0.6,0.2,0.9,0.6,0.9
		c0.3,0,0.6-0.1,0.9-0.4s0.6-0.6,1-1.1c0.1-0.1,0.1,0,0.2,0s0.1,0.2,0,0.3C83.2,61,82.6,61.5,82,62c-0.6,0.5-1.1,0.8-1.6,0.8
		c-0.7,0-1.1-0.5-1.1-1.4c0-0.5,0.1-1.2,0.3-1.9c0.2-0.8,0.4-1.5,0.7-2.3c0.3-0.8,0.6-1.5,1-2.2c0.4-0.7,0.7-1.3,1-1.8
		c-0.3,0.2-0.7,0.5-1.2,0.9C80.6,54.4,80.3,54.6,80,54.9z M83.9,50.1c-0.1,0.1-0.2,0.1-0.2,0c-0.1-0.1-0.1-0.2-0.1-0.3
		c0-0.1,0-0.3,0-0.4c0-0.2,0-0.3,0.1-0.4c0.7-1,1.8-2.1,3.1-3.3c0.1,0,0.2,0,0.3,0.1c0.1,0.1,0.1,0.1,0,0.2
		c-0.6,0.5-1.2,1.2-1.7,1.9C84.8,48.6,84.3,49.3,83.9,50.1z"/>
	<path d="M96.2,60.1c0.1-0.1,0.2-0.1,0.3,0c0.1,0.1,0.1,0.1,0.1,0.3c-0.5,0.7-1,1.2-1.6,1.7c-0.6,0.5-1.1,0.7-1.6,0.7
		c-0.9,0-1.3-0.6-1.3-1.7c0-1,0.2-2,0.5-3.2s0.8-2.4,1.4-3.6c0.1-0.2,0.2-0.4,0.2-0.6c0-0.3-0.1-0.5-0.4-0.5c-1.1,0-2.2,0.7-3.5,2.2
		c-1.3,1.5-2.4,3.7-3.5,6.8c-0.1,0.2-0.2,0.3-0.5,0.4s-0.5,0.1-0.7,0.1c-0.3,0-0.4-0.1-0.3-0.4c0.5-1.2,1-2.6,1.5-4.1s1-3.1,1.4-4.6
		c0.1-0.5,0-0.8-0.3-0.8c-0.3,0-0.6,0.1-0.9,0.4c-0.3,0.3-0.6,0.7-0.9,1.1c-0.1,0.1-0.1,0-0.2,0c-0.1-0.1-0.1-0.2-0.1-0.3
		c0.3-0.5,0.7-1,1.3-1.5c0.5-0.5,1.1-0.8,1.7-0.8c0.7,0,1,0.5,0.7,1.5c-0.1,0.6-0.3,1.3-0.5,2c-0.2,0.7-0.4,1.4-0.6,2.1
		c0.4-0.8,0.9-1.5,1.4-2.2c0.5-0.7,1.1-1.3,1.7-1.7c0.6-0.5,1.2-0.9,1.7-1.2c0.6-0.3,1.1-0.4,1.6-0.4c0.3,0,0.6,0.1,0.8,0.3
		c0.2,0.2,0.3,0.4,0.3,0.6c0,0.4-0.1,0.7-0.3,1.1c-0.6,1.1-1.1,2.2-1.5,3.4c-0.4,1.2-0.6,2.3-0.6,3.3c0,0.7,0.2,1.1,0.7,1.1
		C94.8,61.6,95.5,61.1,96.2,60.1z"/>
	<path d="M105.4,53.8c0,0.4-0.2,0.8-0.5,1.1c-0.3,0.3-0.7,0.6-1.3,0.9c-0.5,0.3-1.2,0.5-1.9,0.7c-0.7,0.2-1.4,0.4-2.2,0.6
		c0,0.3-0.1,0.6-0.1,0.9c0,0.3,0,0.7,0,1c0,0.7,0.2,1.3,0.5,1.8c0.3,0.5,0.8,0.7,1.3,0.7c0.6,0,1.1-0.1,1.6-0.4
		c0.5-0.3,0.9-0.7,1.3-1.2c0.1-0.1,0.2,0,0.3,0c0.1,0.1,0.1,0.2,0,0.3c-0.5,0.7-1.1,1.2-1.8,1.7c-0.7,0.5-1.5,0.7-2.3,0.7
		c-0.7,0-1.3-0.2-1.8-0.7c-0.5-0.5-0.7-1.2-0.7-2.1c0-0.9,0.2-1.8,0.5-2.7c0.3-1,0.7-1.8,1.2-2.6c0.5-0.8,1.1-1.5,1.8-2
		c0.7-0.5,1.4-0.8,2.1-0.8c0.5,0,1,0.2,1.4,0.6C105.2,52.8,105.4,53.3,105.4,53.8z M102.6,53c-0.7,0-1.2,0.3-1.7,0.9
		c-0.5,0.6-0.9,1.5-1.1,2.7c1.4-0.2,2.4-0.5,3-0.9c0.6-0.4,1-0.8,1-1.3c0-0.4-0.1-0.7-0.3-1C103.2,53.1,102.9,53,102.6,53z"/>
	<path d="M110.6,53.1c0,0.4,0,0.9-0.1,1.5s-0.2,1.1-0.3,1.7c0.6-1.4,1.2-2.4,1.9-3.2s1.4-1.2,2.2-1.2c0.3,0,0.6,0.1,0.9,0.3
		c0.3,0.2,0.4,0.4,0.4,0.7c0,0.2-0.1,0.5-0.3,0.9c-0.2,0.4-0.3,0.6-0.5,0.8c-0.2,0.1-0.3,0.1-0.3-0.1c0-0.5-0.3-0.7-1-0.7
		c-1,0-1.9,0.7-2.7,2.2c-0.8,1.5-1.6,3.6-2.3,6.2c-0.1,0.3-0.2,0.5-0.6,0.6c-0.3,0.1-0.6,0.1-0.8,0.1c-0.3,0-0.4-0.2-0.2-0.5
		c0.3-0.6,0.5-1.2,0.7-1.9c0.2-0.7,0.4-1.4,0.7-2.1s0.4-1.4,0.5-2.1c0.1-0.7,0.3-1.3,0.3-1.9c0.1-0.9,0-1.3-0.4-1.3
		c-0.2,0-0.5,0.1-0.8,0.4c-0.3,0.3-0.6,0.6-0.8,0.9c-0.1,0.1-0.2,0-0.3,0s-0.1-0.2,0-0.3c0.4-0.5,0.9-1,1.4-1.5
		c0.5-0.4,1-0.7,1.5-0.7C110.2,51.9,110.6,52.3,110.6,53.1z"/>
	<path d="M124.1,52.9c0-0.1,0.1-0.2,0.2-0.3c0.1-0.1,0.2-0.2,0.4-0.3c0.2-0.1,0.3-0.2,0.5-0.3c0.2-0.1,0.3-0.1,0.4-0.1
		c0.3,0,0.4,0.1,0.3,0.3c-0.6,1.8-1.2,3.5-1.8,5.1s-1.2,3.4-1.9,5.2c-0.8,2-1.6,3.7-2.5,5c-0.9,1.4-1.8,2.4-2.7,3.3
		c-1,0.8-1.9,1.4-3,1.8c-1,0.4-2.1,0.6-3.2,0.6c-1.5,0-2.7-0.4-3.4-1.1c-0.8-0.8-1.2-1.7-1.2-2.8c0-0.5,0.1-1.1,0.4-1.6
		c0.3-0.6,0.7-1.1,1.3-1.5c0.1-0.1,0.2,0,0.2,0.1c0.1,0.1,0.1,0.2,0,0.3c-0.5,0.5-0.7,1.2-0.7,1.8c0,1.2,0.3,2.2,1,2.9
		c0.7,0.7,1.7,1.1,3.1,1.1c1,0,1.9-0.2,2.8-0.5c0.8-0.3,1.6-0.9,2.4-1.7c0.8-0.8,1.5-1.9,2.2-3.2c0.7-1.3,1.4-3,2.2-5
		c0.3-0.9,0.6-1.8,0.9-2.6c0.3-0.8,0.6-1.6,0.9-2.5c-1.1,1.7-2.2,3.1-3.4,4.2c-1.2,1.1-2.2,1.7-3.1,1.8c-0.4,0-0.6-0.2-0.8-0.5
		c-0.2-0.3-0.3-0.8-0.3-1.4c0-0.5,0.1-1.1,0.2-1.7c0.1-0.6,0.3-1.2,0.5-1.9s0.5-1.3,0.8-2c0.3-0.7,0.7-1.3,1.1-1.9
		c-0.3,0.2-0.6,0.5-1,0.7s-0.6,0.5-0.9,0.7c-0.1,0.1-0.2,0-0.2-0.1c-0.1-0.1-0.1-0.2,0-0.3c0.4-0.4,0.9-0.9,1.6-1.4
		c0.7-0.5,1.4-0.9,2-1.3c0.3,0,0.4,0.1,0.3,0.4c-0.4,0.6-0.8,1.2-1.2,1.9c-0.4,0.7-0.7,1.4-0.9,2.1c-0.3,0.7-0.5,1.4-0.6,2.1
		c-0.1,0.7-0.2,1.3-0.2,1.8c0,0.8,0.3,1.2,0.8,1.2c0.5,0,1-0.3,1.6-0.9c0.6-0.6,1.3-1.4,1.9-2.2c0.6-0.9,1.2-1.8,1.7-2.8
		C123.4,54.5,123.8,53.7,124.1,52.9z"/>
	<path d="M153.4,54.1c0.1,0.1,0,0.2-0.1,0.3s-0.2,0-0.4-0.1c-0.2-0.3-0.5-0.6-0.9-0.8c-0.4-0.2-0.8-0.3-1.4-0.3
		c-0.7,0-1.3,0.2-1.8,0.6c-0.5,0.4-1.1,0.8-1.6,1.4c-0.5,0.6-1,1.2-1.5,1.9s-1,1.4-1.5,2.1c0.8,0.7,1.6,1.3,2.6,1.7s2,0.6,3.1,0.6
		c1,0,1.7-0.4,2.3-1.1c0.1-0.1,0.3-0.2,0.5-0.2s0.2,0.2,0,0.5c-0.5,0.6-1,1.1-1.7,1.5c-0.7,0.4-1.5,0.6-2.4,0.6
		c-1.1,0-2.1-0.2-3-0.6c-0.9-0.4-1.8-1-2.5-1.7c-0.7,0.7-1.4,1.2-2.3,1.6s-1.8,0.6-2.9,0.6c-1.5,0-2.7-0.4-3.6-1.3
		c-0.9-0.9-1.4-1.9-1.4-3.3c0-0.9,0.2-1.6,0.5-2.2c0.4-0.6,0.8-1.2,1.4-1.7c0.6-0.5,1.2-0.9,1.9-1.3c0.7-0.4,1.4-0.8,2.1-1.3
		c-0.2-1.2-0.3-2.3-0.3-3.3c0-0.8,0.1-1.5,0.4-2.3c0.2-0.7,0.6-1.3,1-1.9c0.4-0.5,0.9-1,1.4-1.3c0.5-0.3,1.1-0.5,1.7-0.5
		c0.5,0,0.9,0.2,1.2,0.7c0.3,0.5,0.5,1,0.5,1.5c0,0.8-0.1,1.6-0.4,2.2s-0.6,1.3-1,1.8s-0.9,1-1.5,1.5c-0.6,0.4-1.1,0.8-1.7,1.2
		c0.3,1.4,0.8,2.8,1.4,4.1c0.6,1.3,1.4,2.4,2.4,3.4c0.6-0.7,1.1-1.5,1.6-2.3s1.1-1.6,1.6-2.3s1.2-1.3,1.8-1.8
		c0.6-0.5,1.4-0.7,2.2-0.7c0.6,0,1.1,0.2,1.5,0.7C153,53,153.3,53.5,153.4,54.1z M134.6,57.5c0,1.3,0.4,2.3,1.2,3
		c0.8,0.7,2,1.1,3.5,1.1c0.7,0,1.3-0.1,1.9-0.4c0.6-0.3,1.1-0.6,1.6-1.1c-1-1-1.8-2.2-2.4-3.6c-0.6-1.4-1.1-2.9-1.4-4.3
		c-0.6,0.4-1.1,0.7-1.6,1.1c-0.5,0.4-1,0.7-1.4,1.2s-0.7,0.9-1,1.4C134.7,56.3,134.6,56.9,134.6,57.5z M139.6,47.2
		c0,1.3,0.1,2.6,0.4,3.9c1-0.7,1.8-1.4,2.5-2.2s1-1.9,1-3.3c0-0.5-0.1-1-0.4-1.4c-0.2-0.4-0.6-0.6-1.1-0.6c-0.8,0-1.4,0.3-1.8,1
		C139.8,45.3,139.6,46.1,139.6,47.2z"/>
	<path d="M164.4,62.2c-0.4,0.2-0.8,0.3-1.2,0.4c-0.4,0.1-0.8,0.2-1.1,0.2c-0.3,0-0.4-0.2-0.3-0.6c0.5-1.2,0.9-2.5,1.2-3.9
		c0.3-1.4,0.6-2.7,0.7-3.8c0.1-1-0.1-1.5-0.5-1.5s-0.9,0.3-1.6,1c-0.1,0.1-0.3,0-0.3,0c-0.1-0.1-0.1-0.2,0-0.3
		c0.7-0.7,1.2-1.1,1.7-1.4c0.5-0.3,1-0.4,1.4-0.4c0.3,0,0.6,0.1,0.7,0.4c0.1,0.3,0.2,0.6,0.2,1c0,0.5-0.1,1.2-0.2,1.9
		c-0.1,0.7-0.3,1.5-0.4,2.3c-0.2,0.8-0.4,1.6-0.6,2.4c-0.2,0.8-0.4,1.5-0.6,2.1c0.8-0.2,1.6-0.6,2.4-1.1c0.8-0.5,1.5-1.2,2.1-1.9
		c0.6-0.7,1.1-1.5,1.5-2.3c0.4-0.8,0.6-1.7,0.6-2.5c0-0.7-0.2-1.1-0.7-1.1c-0.4,0-0.8,0.2-1.1,0.7c-0.1,0.1-0.2,0-0.2,0
		c-0.1-0.1-0.1-0.2,0-0.3c0.2-0.4,0.5-0.7,1-1c0.4-0.3,0.8-0.5,1.2-0.5c0.3,0,0.6,0.1,0.8,0.4c0.2,0.3,0.3,0.7,0.3,1.3
		c0,0.8-0.2,1.6-0.5,2.5c-0.4,0.8-0.8,1.6-1.5,2.4c-0.6,0.8-1.4,1.5-2.2,2.1C166.4,61.2,165.4,61.8,164.4,62.2z"/>
	<path d="M173.9,54.9c-0.1,0.1-0.2,0-0.2-0.1c-0.1-0.1-0.1-0.2,0-0.3c0.4-0.4,0.9-0.9,1.6-1.4s1.4-0.9,2-1.3c0.2,0,0.3,0.1,0.3,0.4
		c-0.4,0.7-0.7,1.4-1.1,2.1c-0.4,0.8-0.7,1.5-0.9,2.3c-0.3,0.8-0.5,1.5-0.7,2.2s-0.3,1.3-0.3,1.7c0,0.6,0.2,0.9,0.6,0.9
		c0.3,0,0.6-0.1,0.9-0.4s0.6-0.6,1-1.1c0.1-0.1,0.1,0,0.2,0s0.1,0.2,0,0.3c-0.5,0.6-1.1,1.2-1.6,1.7c-0.6,0.5-1.1,0.8-1.6,0.8
		c-0.7,0-1.1-0.5-1.1-1.4c0-0.5,0.1-1.2,0.3-1.9c0.2-0.8,0.4-1.5,0.7-2.3c0.3-0.8,0.6-1.5,1-2.2s0.7-1.3,1-1.8
		c-0.3,0.2-0.7,0.5-1.2,0.9C174.4,54.4,174.1,54.6,173.9,54.9z M177.7,50.1c-0.1,0.1-0.2,0.1-0.2,0c-0.1-0.1-0.1-0.2-0.1-0.3
		c0-0.1,0-0.3,0-0.4c0-0.2,0-0.3,0.1-0.4c0.7-1,1.8-2.1,3.1-3.3c0.1,0,0.2,0,0.3,0.1c0.1,0.1,0.1,0.1,0,0.2
		c-0.6,0.5-1.2,1.2-1.7,1.9C178.6,48.6,178.1,49.3,177.7,50.1z"/>
	<path d="M190,60.1c0.1-0.1,0.2-0.1,0.3,0c0.1,0.1,0.1,0.1,0.1,0.3c-0.5,0.7-1,1.2-1.6,1.7c-0.6,0.5-1.1,0.7-1.6,0.7
		c-0.9,0-1.3-0.6-1.3-1.7c0-1,0.2-2,0.5-3.2c0.3-1.2,0.8-2.4,1.4-3.6c0.1-0.2,0.2-0.4,0.2-0.6c0-0.3-0.1-0.5-0.4-0.5
		c-1.1,0-2.2,0.7-3.5,2.2c-1.3,1.5-2.4,3.7-3.5,6.8c-0.1,0.2-0.2,0.3-0.5,0.4c-0.3,0.1-0.5,0.1-0.7,0.1c-0.3,0-0.4-0.1-0.3-0.4
		c0.5-1.2,1-2.6,1.5-4.1s1-3.1,1.4-4.6c0.1-0.5,0-0.8-0.3-0.8c-0.3,0-0.6,0.1-0.9,0.4c-0.3,0.3-0.6,0.7-0.9,1.1
		c-0.1,0.1-0.1,0-0.2,0s-0.1-0.2-0.1-0.3c0.3-0.5,0.7-1,1.3-1.5c0.5-0.5,1.1-0.8,1.7-0.8c0.7,0,1,0.5,0.7,1.5
		c-0.1,0.6-0.3,1.3-0.5,2c-0.2,0.7-0.4,1.4-0.6,2.1c0.4-0.8,0.9-1.5,1.4-2.2s1.1-1.3,1.7-1.7s1.2-0.9,1.8-1.2
		c0.6-0.3,1.1-0.4,1.6-0.4c0.3,0,0.6,0.1,0.8,0.3c0.2,0.2,0.3,0.4,0.3,0.6c0,0.4-0.1,0.7-0.3,1.1c-0.6,1.1-1.1,2.2-1.5,3.4
		c-0.4,1.2-0.6,2.3-0.6,3.3c0,0.7,0.2,1.1,0.7,1.1C188.6,61.6,189.3,61.1,190,60.1z"/>
	<path d="M199.2,53.8c0,0.4-0.2,0.8-0.5,1.1c-0.3,0.3-0.7,0.6-1.3,0.9c-0.5,0.3-1.2,0.5-1.9,0.7c-0.7,0.2-1.4,0.4-2.2,0.6
		c0,0.3,0,0.6-0.1,0.9c0,0.3,0,0.7,0,1c0,0.7,0.2,1.3,0.5,1.8c0.3,0.5,0.8,0.7,1.3,0.7c0.6,0,1.1-0.1,1.6-0.4
		c0.5-0.3,0.9-0.7,1.3-1.2c0.1-0.1,0.2,0,0.3,0c0.1,0.1,0.1,0.2,0,0.3c-0.5,0.7-1.1,1.2-1.8,1.7c-0.7,0.5-1.5,0.7-2.3,0.7
		c-0.7,0-1.3-0.2-1.8-0.7c-0.5-0.5-0.7-1.2-0.7-2.1c0-0.9,0.2-1.8,0.5-2.7c0.3-1,0.7-1.8,1.2-2.6c0.5-0.8,1.1-1.5,1.8-2
		c0.7-0.5,1.4-0.8,2.1-0.8c0.5,0,1,0.2,1.4,0.6S199.2,53.3,199.2,53.8z M196.4,53c-0.7,0-1.2,0.3-1.8,0.9c-0.5,0.6-0.9,1.5-1.1,2.7
		c1.4-0.2,2.4-0.5,3-0.9c0.6-0.4,1-0.8,1-1.3c0-0.4-0.1-0.7-0.3-1C197,53.1,196.7,53,196.4,53z"/>
	<path d="M209.6,52.9c0-0.1,0.1-0.2,0.2-0.3s0.2-0.2,0.4-0.3c0.2-0.1,0.3-0.2,0.5-0.3c0.2-0.1,0.3-0.1,0.4-0.1
		c0.3,0,0.4,0.1,0.3,0.3c-0.6,1.8-1.2,3.5-1.8,5.1c-0.6,1.7-1.2,3.4-1.9,5.2c-0.8,2-1.6,3.7-2.5,5c-0.9,1.4-1.8,2.4-2.7,3.3
		c-1,0.8-1.9,1.4-3,1.8c-1,0.4-2.1,0.6-3.2,0.6c-1.5,0-2.7-0.4-3.4-1.1c-0.8-0.8-1.2-1.7-1.2-2.8c0-0.5,0.1-1.1,0.4-1.6
		c0.3-0.6,0.7-1.1,1.3-1.5c0.1-0.1,0.2,0,0.2,0.1c0.1,0.1,0.1,0.2,0,0.3c-0.5,0.5-0.7,1.2-0.7,1.8c0,1.2,0.3,2.2,1,2.9
		c0.7,0.7,1.7,1.1,3.1,1.1c1,0,1.9-0.2,2.8-0.5c0.8-0.3,1.6-0.9,2.4-1.7c0.8-0.8,1.5-1.9,2.2-3.2c0.7-1.3,1.4-3,2.2-5
		c0.3-0.9,0.6-1.8,0.9-2.6c0.3-0.8,0.6-1.6,0.9-2.5c-1.1,1.7-2.2,3.1-3.4,4.2c-1.2,1.1-2.2,1.7-3.1,1.8c-0.4,0-0.6-0.2-0.8-0.5
		c-0.2-0.3-0.3-0.8-0.3-1.4c0-0.5,0.1-1.1,0.2-1.7c0.1-0.6,0.3-1.2,0.5-1.9c0.2-0.7,0.5-1.3,0.8-2c0.3-0.7,0.7-1.3,1.1-1.9
		c-0.3,0.2-0.6,0.5-1,0.7c-0.3,0.3-0.6,0.5-0.9,0.7c-0.1,0.1-0.2,0-0.2-0.1s-0.1-0.2,0-0.3c0.4-0.4,0.9-0.9,1.6-1.4
		c0.7-0.5,1.4-0.9,2-1.3c0.3,0,0.4,0.1,0.3,0.4c-0.4,0.6-0.8,1.2-1.2,1.9c-0.4,0.7-0.7,1.4-0.9,2.1c-0.3,0.7-0.5,1.4-0.6,2.1
		s-0.2,1.3-0.2,1.8c0,0.8,0.3,1.2,0.8,1.2c0.5,0,1-0.3,1.6-0.9c0.6-0.6,1.3-1.4,1.9-2.2c0.6-0.9,1.2-1.8,1.7-2.8
		S209.3,53.7,209.6,52.9z"/>
	<path d="M222.7,60.1c0.1-0.1,0.1-0.1,0.2,0c0.1,0.1,0.1,0.1,0.1,0.3c-0.6,0.8-1.2,1.4-1.8,1.8c-0.6,0.4-1.1,0.6-1.5,0.6
		c-0.3,0-0.5-0.1-0.6-0.4s-0.3-0.6-0.3-1c0-0.4,0-0.9,0-1.5s0.2-1.1,0.4-1.7c-0.8,1.2-1.6,2.2-2.4,3.1c-0.9,0.9-1.7,1.4-2.5,1.6
		c-0.5,0-0.9-0.2-1.3-0.7c-0.4-0.5-0.5-1.3-0.5-2.3c0-0.9,0.2-1.9,0.6-2.8c0.4-0.9,0.9-1.8,1.6-2.5s1.4-1.4,2.3-1.8
		c0.9-0.5,1.7-0.7,2.7-0.7c0.5,0,1,0.1,1.3,0.2c0.4,0.1,0.7,0.3,1,0.5c0.2-0.1,0.4-0.3,0.7-0.4s0.6-0.2,0.8-0.2
		c0.1,0,0.2,0.1,0.1,0.2c-0.7,0.8-1.2,1.7-1.7,2.6c-0.5,1-0.8,1.9-1.1,2.8c-0.3,0.9-0.4,1.7-0.5,2.4c-0.1,0.7,0,1.2,0.1,1.4
		c0.1,0.2,0.4,0.2,0.8,0C221.6,61.4,222.1,60.9,222.7,60.1z M215.3,61.4c0.3,0,0.7-0.2,1.2-0.7c0.5-0.4,1-1,1.6-1.7s1.1-1.5,1.6-2.4
		c0.5-0.9,1-1.8,1.4-2.7c-0.1-0.4-0.4-0.7-0.8-0.9c-0.4-0.2-0.9-0.3-1.4-0.3c-0.6,0-1.2,0.2-1.8,0.5c-0.6,0.3-1,0.8-1.5,1.4
		c-0.4,0.6-0.8,1.3-1,2.1c-0.3,0.8-0.4,1.7-0.4,2.6c0,0.6,0.1,1.1,0.3,1.6C214.7,61.2,214.9,61.4,215.3,61.4z"/>
	<path d="M228.9,53.1c0,0.4,0,0.9-0.1,1.5c-0.1,0.6-0.2,1.1-0.3,1.7c0.6-1.4,1.2-2.4,1.9-3.2s1.4-1.2,2.2-1.2c0.3,0,0.6,0.1,0.9,0.3
		c0.3,0.2,0.4,0.4,0.4,0.7c0,0.2-0.1,0.5-0.3,0.9s-0.3,0.6-0.5,0.8c-0.2,0.1-0.3,0.1-0.3-0.1c0-0.5-0.3-0.7-1-0.7
		c-1,0-1.9,0.7-2.7,2.2s-1.6,3.6-2.3,6.2c-0.1,0.3-0.2,0.5-0.6,0.6c-0.3,0.1-0.6,0.1-0.8,0.1c-0.3,0-0.4-0.2-0.2-0.5
		c0.3-0.6,0.5-1.2,0.7-1.9c0.2-0.7,0.4-1.4,0.7-2.1c0.2-0.7,0.4-1.4,0.5-2.1c0.1-0.7,0.3-1.3,0.3-1.9c0.1-0.9,0-1.3-0.4-1.3
		c-0.2,0-0.5,0.1-0.8,0.4s-0.6,0.6-0.8,0.9c-0.1,0.1-0.2,0-0.3,0s-0.1-0.2,0-0.3c0.4-0.5,0.9-1,1.4-1.5c0.5-0.4,1-0.7,1.5-0.7
		C228.5,51.9,228.9,52.3,228.9,53.1z"/>
	<path d="M257.7,30.6c0.7,0,1.2,0.3,1.4,0.9c0.2,0.6,0.1,1.3-0.3,2.1c-0.2,0.2-0.4,0.1-0.4-0.1c0.1-0.4-0.1-0.7-0.3-0.9
		c-0.3-0.2-0.7-0.3-1.2-0.3c-1,0-2.1,0.4-3.1,1.1c-1.1,0.7-2.1,1.7-3.1,3c-1,1.3-2,2.8-2.9,4.5c-0.9,1.7-1.8,3.6-2.6,5.5
		c-0.8,2-1.5,4.1-2.2,6.2c-0.6,2.2-1.2,4.4-1.6,6.5c-0.1,0.7-0.1,1.2-0.1,1.7c0.1,0.5,0.3,0.7,0.6,0.7c0.3,0,0.6-0.2,0.9-0.5
		c0.3-0.3,0.6-0.7,0.9-1.1c0.1-0.1,0.1-0.1,0.2,0c0.1,0.1,0.1,0.1,0.1,0.3c-0.1,0.3-0.3,0.5-0.6,0.9c-0.3,0.3-0.5,0.6-0.8,0.9
		s-0.6,0.5-0.9,0.7c-0.3,0.2-0.6,0.3-0.9,0.3c-0.5,0-0.8-0.2-1-0.6c-0.2-0.4-0.2-0.9-0.2-1.6c0-0.5,0.1-0.9,0.2-1.4s0.2-0.9,0.3-1.4
		c-0.3,0.6-0.6,1.2-1,1.7s-0.9,1.1-1.3,1.5c-0.5,0.5-0.9,0.8-1.3,1.1c-0.4,0.3-0.8,0.5-1.1,0.6c-0.5,0-0.9-0.2-1.4-0.6
		c-0.4-0.4-0.7-1.1-0.7-2c0-1.1,0.2-2.1,0.6-3.1c0.4-1,0.9-1.9,1.5-2.7c0.6-0.8,1.4-1.4,2.2-1.9c0.8-0.5,1.7-0.7,2.7-0.7
		c0.3,0,0.6,0,0.8,0.1c0.2,0.1,0.5,0.2,0.7,0.3c0.5-1.5,1.1-3.1,1.9-4.8c0.7-1.7,1.5-3.3,2.4-4.9c0.9-1.6,1.8-3.1,2.7-4.6
		c1-1.5,1.9-2.7,2.9-3.8c1-1.1,2-2,3-2.6C255.7,30.9,256.7,30.6,257.7,30.6z M236.1,61.3c0.3,0,0.7-0.2,1.1-0.5
		c0.4-0.4,0.9-0.8,1.3-1.4c0.4-0.6,0.9-1.2,1.3-2c0.4-0.8,0.8-1.5,1-2.3c0.1-0.3,0.2-0.6,0.3-0.8c0.1-0.3,0.2-0.5,0.2-0.8
		c-0.1-0.3-0.3-0.6-0.6-0.7c-0.3-0.2-0.7-0.2-1.1-0.2c-0.6,0-1.2,0.2-1.8,0.5s-1.1,0.8-1.5,1.5c-0.4,0.6-0.8,1.4-1.1,2.2
		s-0.4,1.8-0.4,2.8c0,0.6,0.1,1,0.4,1.3S235.8,61.3,236.1,61.3z"/>
</g>
</svg>
