<?xml version="1.0" encoding="utf-8"?>
<!-- Generator: Adobe Illustrator 18.0.0, SVG Export Plug-In . SVG Version: 6.00 Build 0)  -->
<!DOCTYPE svg PUBLIC "-//W3C//DTD SVG 1.1//EN" "http://www.w3.org/Graphics/SVG/1.1/DTD/svg11.dtd">
<svg version="1.1" id="Layer_1" xmlns="http://www.w3.org/2000/svg" xmlns:xlink="http://www.w3.org/1999/xlink" x="0px" y="0px"
	 width="200px" height="50px" viewBox="0 0 200 50" enable-background="new 0 0 200 50" xml:space="preserve">
<g>
	<path fill="#231F20" d="M142.4,48.2h-10.8V1.9h10.8V48.2z"/>
	<path fill="#231F20" d="M157.8,24.4L143.5,1.9h10.7c0.7,0,1.2,0.1,1.5,0.3c0.3,0.2,0.6,0.5,0.9,0.9l9.2,15.6
		c0.1-0.3,0.2-0.5,0.4-0.8c0.1-0.3,0.3-0.5,0.5-0.8l8.1-13.8c0.5-0.9,1.2-1.3,2.2-1.3h10.3l-14.5,22l14.8,24.2h-10.7
		c-0.7,0-1.3-0.2-1.7-0.5c-0.4-0.3-0.8-0.7-1-1.2l-9.3-16.2c-0.2,0.5-0.4,0.9-0.6,1.2l-8.6,15c-0.3,0.4-0.6,0.8-1,1.2
		c-0.4,0.3-1,0.5-1.6,0.5h-10L157.8,24.4z"/>
	<g>
		<path fill="none" d="M93.4,24.9v-1.6c-0.7,0.3-1.4,0.7-2.2,1C92,24.4,92.7,24.7,93.4,24.9z"/>
		<path fill="none" d="M114.5,11.7c-1.3-1.1-3.4-1.7-6.1-1.7h-4.3v13.7h4.3c1.5,0,2.7-0.2,3.7-0.6c1-0.4,1.9-0.9,2.5-1.5
			c0.7-0.7,1.1-1.4,1.4-2.3c0.3-0.9,0.4-1.8,0.4-2.8C116.5,14.4,115.9,12.8,114.5,11.7z"/>
		<path d="M121.3,32.1c-0.5-0.8-1-1.4-1.6-1.9c-0.6-0.5-1.3-1-2-1.3c1.5-0.6,2.8-1.3,4-2.2c1.2-0.9,2.1-1.9,2.9-3
			c0.8-1.1,1.4-2.4,1.8-3.7c0.4-1.3,0.6-2.7,0.6-4.3c0-2-0.3-3.8-1-5.5c-0.7-1.7-1.8-3.1-3.3-4.3c-1.5-1.2-3.4-2.2-5.8-2.9
			c-2.4-0.7-5.2-1-8.5-1h-15v2.4C94,4.6,94.5,5,95,5.3c1.4,1.1,2.4,2.4,3.1,3.9c0.6,1.5,1,3.3,1,5.2c0,1-0.1,2-0.4,3
			c-0.3,1-0.8,1.9-1.4,2.7c-0.6,0.8-1.4,1.6-2.4,2.3c-0.4,0.3-0.9,0.6-1.4,0.8v1.6c2,0.7,3.5,1.7,4.6,2.9c1.5,1.7,2.2,3.8,2.2,6.4
			c0,2-0.4,3.8-1.1,5.5c-0.8,1.7-1.9,3.2-3.3,4.4c-0.7,0.6-1.4,1.1-2.3,1.6v2.5h10.7V31.1h2.7c0.8,0,1.5,0.1,1.9,0.4
			s0.9,0.7,1.2,1.3l7.7,13.4c0.8,1.4,2.1,2,3.9,2h9.7L121.3,32.1z M116.1,19.3c-0.3,0.9-0.8,1.6-1.4,2.3c-0.7,0.7-1.5,1.2-2.5,1.5
			c-1,0.4-2.3,0.6-3.7,0.6h-4.3V10h4.3c2.8,0,4.8,0.6,6.1,1.7c1.3,1.1,2,2.7,2,4.8C116.5,17.5,116.4,18.4,116.1,19.3z"/>
	</g>
	<polygon fill="#BE1E2D" points="75.1,28.4 85.3,31.5 85.2,40.2 75.2,37.2 	"/>
	<polygon fill="#BE1E2D" points="75.1,9.8 85.3,12.9 85.2,21.6 75.2,18.6 	"/>
	<path fill="#231F20" d="M66.3,26.6c-0.8-1.7-1.8-3.2-3.1-4.3c-1.3-1.1-2.8-2-4.4-2.5c-1.6-0.6-3.3-0.8-5-0.8
		c-0.9,0-1.8,0.1-2.6,0.2c-0.8,0.1-1.6,0.4-2.3,0.6c0.2-0.2,0.4-0.5,0.6-0.7c0.2-0.2,0.4-0.5,0.6-0.7L63.8,1.9h-8.8
		c-1.2,0-2.2,0.2-3.2,0.7c-0.9,0.4-1.6,1-2.1,1.6L39.4,18.3c-1.7,2.4-3.1,4.7-3.9,7c-0.5,1.3-0.9,2.7-1.1,4V1.9h-9.4L3.5,30.8l1,4.9
		c0.1,0.6,0.4,1,0.9,1.4c0.5,0.4,1.1,0.6,1.7,0.6h18.6v10.7h8.6V37.6h0.5c0.1,0.4,0.2,0.9,0.4,1.3c0.8,2,1.8,3.8,3.3,5.2
		c1.4,1.5,3.2,2.6,5.2,3.4c2.1,0.8,4.4,1.2,7,1.2c2.5,0,4.8-0.4,6.9-1.3c2.1-0.8,3.9-2,5.3-3.5c1.5-1.5,2.6-3.1,3.4-5.1
		c0.8-1.9,1.2-4,1.2-6.2C67.5,30.5,67.1,28.4,66.3,26.6z M25.8,15.8c-0.1,0.9-0.1,1.7-0.1,2.4v12.1H13.8L26,13.1
		C25.9,14,25.9,14.9,25.8,15.8z M57.1,36.5c-0.4,0.9-0.9,1.7-1.5,2.4c-0.6,0.7-1.4,1.2-2.3,1.6c-0.9,0.4-1.8,0.6-2.8,0.6
		c-1.2,0-2.2-0.2-3.1-0.5c-0.9-0.3-1.6-0.9-2.2-1.5c-0.6-0.7-1-1.4-1.3-2.4c-0.3-0.9-0.4-1.9-0.4-3.1c0-1.1,0.2-2.2,0.5-3.1
		c0.3-0.9,0.8-1.7,1.4-2.4c0.6-0.7,1.3-1.2,2.1-1.5c0.8-0.3,1.7-0.5,2.7-0.5c1.1,0,2.1,0.2,3,0.5c0.9,0.3,1.7,0.8,2.3,1.5
		c0.6,0.6,1.1,1.4,1.5,2.4c0.3,0.9,0.5,2,0.5,3.2C57.7,34.6,57.5,35.6,57.1,36.5z"/>
</g>
</svg>
