<?xml version="1.0" encoding="utf-8"?>
<!-- Generator: Adobe Illustrator 18.0.0, SVG Export Plug-In . SVG Version: 6.00 Build 0)  -->
<!DOCTYPE svg PUBLIC "-//W3C//DTD SVG 1.1//EN" "http://www.w3.org/Graphics/SVG/1.1/DTD/svg11.dtd">
<svg version="1.1" id="Layer_1" xmlns="http://www.w3.org/2000/svg" xmlns:xlink="http://www.w3.org/1999/xlink" x="0px" y="0px"
	 width="24px" height="24px" viewBox="0 0 24 24" enable-background="new 0 0 24 24" xml:space="preserve">
<path fill="#333333" d="M-15.3,11.2"/>
<path fill="#333333" d="M20.1,1.8H4.9c-1.2,0-2.1,1-2.1,2.1v0.9v0.6h-1C1.5,5.4,1.2,5.7,1.2,6v0.9c0,0.3,0.3,0.6,0.6,0.6h1V8v1.4h-1
	c-0.3,0-0.6,0.3-0.6,0.6v0.9c0,0.3,0.3,0.6,0.6,0.6h1v1.9h-1c-0.3,0-0.6,0.3-0.6,0.6v0.9c0,0.3,0.3,0.6,0.6,0.6h1v1.9h-1
	c-0.3,0-0.6,0.3-0.6,0.6v0.9c0,0.3,0.3,0.6,0.6,0.6h1v0.9c0,1.2,1,2.1,2.1,2.1h15.1c1.2,0,2.1-1,2.1-2.1V8V4.8V3.9
	C22.2,2.8,21.2,1.8,20.1,1.8z M19.2,20.1H5.8c-0.4,0-0.8-0.3-0.8-0.8L5,4.8c0-0.4,0.3-0.8,0.8-0.8h13.5c0.4,0,0.8,0.3,0.8,0.8
	l0,14.5C20,19.7,19.6,20.1,19.2,20.1z"/>
<path fill="#333333" d="M17.9,16.6c-0.3-0.7-1.8-1.2-2.9-1.6s-0.9-0.7-0.9-1.1c0,0,0-0.1,0-0.1c0.3-0.3,0.6-0.6,0.7-0.9c0,0,0,0,0,0
	c0-0.1,0.1-0.4,0.1-0.5c0.2,0,0.4-0.3,0.4-0.5c0.1-0.1,0.2-0.3,0.1-0.6c0-0.3-0.2-0.5-0.3-0.6c0,0,0,0,0,0c0-0.3,0-0.7,0-1.3
	c0,0,0-0.1,0.1-0.1c-0.1-0.1-0.1-0.4,0-0.6c-0.1,0-0.1,0-0.2-0.1c0,0,0.1-0.1,0.1-0.1c0,0-0.1,0-0.1-0.1c0,0,0.1,0,0.1,0
	c-0.1,0-0.1-0.1-0.2-0.1c0,0,0.1,0,0.1,0c-0.3-0.2-0.4-0.3-0.4-0.6c-0.1,0-0.1,0.1-0.2,0.1c0-0.2-0.1-0.2-0.1-0.4c0,0,0,0.1-0.1,0.1
	c-0.5-0.7-1-0.7-1.6-0.9c0.2,0.2,0.1,0.3,0,0.3c-0.9-0.3-1,0.5-1.6,0.4c0,0.1,0,0.2,0,0.2c-0.1,0-0.1,0-0.2-0.1c0,0,0,0.1,0,0.1
	c-0.1,0-0.2,0-0.2,0c0,0.1,0.1,0.1,0.1,0.2c-0.1,0-0.2,0-0.2-0.1c0,0.1,0.1,0.1,0.1,0.2c-0.1,0-0.2,0-0.3-0.1
	c0.1,0.1,0.2,0.2,0.3,0.2c-0.1,0-0.2,0-0.2,0c0,0.1,0.1,0.1,0.1,0.2c-0.7,0.1-0.7,1.6-0.6,2.5c0,0,0,0.1,0,0.1c0,0,0,0,0,0.1
	c-0.2,0.1-0.3,0.2-0.3,0.6c0,0.3,0.1,0.5,0.1,0.6c0.1,0.2,0.2,0.5,0.4,0.5c0,0.1,0.1,0.3,0.1,0.5c0,0,0,0,0,0l0,0
	c0.1,0.4,0.4,0.7,0.7,1c0,0.1,0,0.1,0,0.2c0,0.4,0.1,0.6-0.9,1.1c-1,0.4-2.5,0.9-2.9,1.6c-0.3,0.7-0.2,1.1-0.2,1.1h10.9
	C18.1,17.7,18.2,17.3,17.9,16.6z"/>
</svg>
