<?xml version="1.0" encoding="utf-8"?>
<!-- Generator: Adobe Illustrator 18.0.0, SVG Export Plug-In . SVG Version: 6.00 Build 0)  -->
<!DOCTYPE svg PUBLIC "-//W3C//DTD SVG 1.1//EN" "http://www.w3.org/Graphics/SVG/1.1/DTD/svg11.dtd">
<svg version="1.1" id="Layer_1" xmlns="http://www.w3.org/2000/svg" xmlns:xlink="http://www.w3.org/1999/xlink" x="0px" y="0px"
	 width="24px" height="24px" viewBox="0 0 24 24" enable-background="new 0 0 24 24" xml:space="preserve">
<path fill="#333333" d="M-15.3,11.2"/>
<path fill="#333333" d="M7.2,9.3c0-0.9-0.5-1.6-1.3-1.9C5.7,7.3,5.4,7,5.4,6.7V3.1c0.1,0,0.2-0.1,0.2-0.2V2.3c0-0.1-0.1-0.2-0.2-0.2
	V1.9c0-0.2-0.1-0.3-0.3-0.3H3.7c-0.2,0-0.3,0.1-0.3,0.3v0.2c-0.1,0-0.2,0.1-0.2,0.2v0.6c0,0.1,0.1,0.2,0.2,0.2v3.6
	c0,0.3-0.3,0.6-0.6,0.7c-0.8,0.3-1.3,1-1.3,1.9v12c0,0.5,0.4,0.7,0.9,0.9c1,0.3,3,0.3,4,0c0.5-0.1,0.9-0.4,0.9-0.9L7.2,9.3z"/>
<path fill="#333333" d="M14.9,9.3c0-0.9-0.5-1.6-1.3-1.9C13.3,7.3,13,7,13,6.7V3.1c0.1,0,0.2-0.1,0.2-0.2V2.3c0-0.1-0.1-0.2-0.2-0.2
	V1.9c0-0.2-0.1-0.3-0.3-0.3h-1.4c-0.2,0-0.3,0.1-0.3,0.3v0.2c-0.1,0-0.2,0.1-0.2,0.2v0.6c0,0.1,0.1,0.2,0.2,0.2v3.6
	c0,0.3-0.3,0.6-0.6,0.7c-0.8,0.3-1.3,1-1.3,1.9v12c0,0.5,0.4,0.7,0.9,0.9c1,0.3,3,0.3,4,0c0.5-0.1,0.9-0.4,0.9-0.9L14.9,9.3z"/>
<path fill="#333333" d="M22.5,9.3c0-0.9-0.5-1.6-1.3-1.9c-0.3-0.1-0.6-0.4-0.6-0.7V3.1c0.1,0,0.2-0.1,0.2-0.2V2.3
	c0-0.1-0.1-0.2-0.2-0.2V1.9c0-0.2-0.1-0.3-0.3-0.3h-1.4c-0.2,0-0.3,0.1-0.3,0.3v0.2c-0.1,0-0.2,0.1-0.2,0.2v0.6
	c0,0.1,0.1,0.2,0.2,0.2v3.6c0,0.3-0.3,0.6-0.6,0.7c-0.8,0.3-1.3,1-1.3,1.9v12c0,0.5,0.4,0.7,0.9,0.9c1,0.3,3,0.3,4,0
	c0.5-0.1,0.9-0.4,0.9-0.9L22.5,9.3z"/>
</svg>
