<?xml version="1.0" encoding="utf-8"?>
<!-- Generator: Adobe Illustrator 18.0.0, SVG Export Plug-In . SVG Version: 6.00 Build 0)  -->
<!DOCTYPE svg PUBLIC "-//W3C//DTD SVG 1.1//EN" "http://www.w3.org/Graphics/SVG/1.1/DTD/svg11.dtd">
<svg version="1.1" id="Layer_1" xmlns="http://www.w3.org/2000/svg" xmlns:xlink="http://www.w3.org/1999/xlink" x="0px" y="0px"
	 width="24px" height="24px" viewBox="0 0 24 24" enable-background="new 0 0 24 24" xml:space="preserve">
<path fill="#333333" d="M20.4,5H3.5C2.2,5,1.1,6,1.1,7.4v1V12V17c0,1.3,1.1,2.4,2.4,2.4h16.9c1.3,0,2.4-1.1,2.4-2.4V12V8.4v-1
	C22.8,6,21.7,5,20.4,5z M21.4,17c0,0.5-0.4,1-1,1H3.5c-0.5,0-1-0.4-1-1V12h18.9L21.4,17L21.4,17z M2.5,8.4v-1c0-0.5,0.4-1,1-1h16.9
	c0.5,0,1,0.4,1,1v1H2.5z"/>
</svg>
