<?xml version="1.0" encoding="utf-8"?>
<!-- Generator: Adobe Illustrator 18.0.0, SVG Export Plug-In . SVG Version: 6.00 Build 0)  -->
<!DOCTYPE svg PUBLIC "-//W3C//DTD SVG 1.1//EN" "http://www.w3.org/Graphics/SVG/1.1/DTD/svg11.dtd">
<svg version="1.1" id="Layer_1" xmlns="http://www.w3.org/2000/svg" xmlns:xlink="http://www.w3.org/1999/xlink" x="0px" y="0px"
	 width="24px" height="24px" viewBox="0 0 24 24" enable-background="new 0 0 24 24" xml:space="preserve">
<g>
	<path fill="#333333" d="M12,3.1c-6.2,0-11.2,5-11.2,11.2c0,2.5,0.8,4.8,2.3,6.8l0.6,0.8l0.9-0.5c4.5-2.6,10.3-2.6,14.7,0.1l0.9,0.5
		l0.6-0.8c1.5-2,2.4-4.4,2.4-6.9C23.2,8.1,18.2,3.1,12,3.1z M19.5,18.9c-2.4-1.2-5-1.9-7.7-1.9c-2.6,0-5.2,0.6-7.5,1.8
		c-0.8-1.2-1.2-2.7-1.2-4.1h1.3v-2.3H3.3C3.6,11,4.3,9.7,5.2,8.6l0.7,0.7l1.6-1.7L6.9,7.1c1.1-0.8,2.5-1.4,4-1.5v1h2.3v-1
		c1.3,0.2,2.6,0.6,3.7,1.4l-0.6,0.7l1.7,1.6l0.7-0.7c1,1.1,1.7,2.5,2.1,4h-0.8v2.3h1C20.8,16.2,20.3,17.7,19.5,18.9z"/>
	<path fill="#333333" d="M12,8.3l-1.2,6.1c-0.1,0.2-0.1,0.3-0.1,0.5c0,0.7,0.6,1.3,1.3,1.3c0.7,0,1.3-0.6,1.3-1.3
		c0-0.2,0-0.4-0.1-0.5L12,8.3z"/>
</g>
</svg>
