<?xml version="1.0" encoding="utf-8"?>
<!-- Generator: Adobe Illustrator 18.0.0, SVG Export Plug-In . SVG Version: 6.00 Build 0)  -->
<!DOCTYPE svg PUBLIC "-//W3C//DTD SVG 1.1//EN" "http://www.w3.org/Graphics/SVG/1.1/DTD/svg11.dtd">
<svg version="1.1" id="Layer_1" xmlns="http://www.w3.org/2000/svg" xmlns:xlink="http://www.w3.org/1999/xlink" x="0px" y="0px"
	 width="24px" height="24px" viewBox="0 0 24 24" enable-background="new 0 0 24 24" xml:space="preserve">
<g>
	<path fill="#333333" d="M11.7,11.1l5-2.1l0.8,0.3c0.2,0.1,0.3,0.3,0.3,0.6l-0.2,0.8l-4.2,1.9l-1.1,2.7l-0.8,0.1
		c-0.2,0-0.4-0.1-0.6-0.3l-0.5-0.7L11.7,11.1z"/>
	<path fill="#333333" d="M12.9,2.4c-4.9,0-9,3.6-9.7,8.3h0l-2.1-0.4l3.2,4.7l3.5-4.8l-2.3,0.5c0.7-3.5,3.8-6.1,7.5-6.1
		c4.2,0,7.7,3.4,7.7,7.7c0,4.2-3.4,7.7-7.7,7.7c-2.1,0-4-0.9-5.4-2.2L6,19.2c1.8,1.8,4.2,2.8,6.9,2.8c5.4,0,9.8-4.4,9.8-9.8
		S18.3,2.4,12.9,2.4z"/>
</g>
<path fill="#333333" d="M-15.3,11.2"/>
</svg>
