<?xml version="1.0" encoding="utf-8"?>
<!-- Generator: Adobe Illustrator 18.0.0, SVG Export Plug-In . SVG Version: 6.00 Build 0)  -->
<!DOCTYPE svg PUBLIC "-//W3C//DTD SVG 1.1//EN" "http://www.w3.org/Graphics/SVG/1.1/DTD/svg11.dtd">
<svg version="1.1" id="Layer_1" xmlns="http://www.w3.org/2000/svg" xmlns:xlink="http://www.w3.org/1999/xlink" x="0px" y="0px"
	 width="24px" height="24px" viewBox="0 0 24 24" enable-background="new 0 0 24 24" xml:space="preserve">
<path fill="#333333" d="M-15.3,11.2"/>
<path fill="#333333" d="M18.8,11.2h-1.3c0-1,0-3.3,0-4.4c0-1.6-1.9-4.6-5.6-4.6S6.6,5.3,6.6,6.8c0,1.1,0,3.4,0,4.4H5.4
	c-0.3,0-0.5,0.2-0.5,0.5v9c0,0.3,0.2,0.5,0.5,0.5l6.9,0.4l6.6-0.4c0.3,0,0.5-0.2,0.5-0.5v-9C19.3,11.4,19.1,11.2,18.8,11.2z
	 M9.2,11.2c0-0.7,0-2.2,0-3.3c0-1.6,1.3-3,2.9-3C13.7,4.9,15,6,15,7.5c0,0.3,0,2.6,0,3.7H9.2z"/>
</svg>
