<?xml version="1.0" encoding="utf-8"?>
<!-- Generator: Adobe Illustrator 18.0.0, SVG Export Plug-In . SVG Version: 6.00 Build 0)  -->
<!DOCTYPE svg PUBLIC "-//W3C//DTD SVG 1.1//EN" "http://www.w3.org/Graphics/SVG/1.1/DTD/svg11.dtd">
<svg version="1.1" id="Layer_1" xmlns="http://www.w3.org/2000/svg" xmlns:xlink="http://www.w3.org/1999/xlink" x="0px" y="0px"
	 width="24px" height="24px" viewBox="0 0 24 24" enable-background="new 0 0 24 24" xml:space="preserve">
<path fill="#333333" d="M22.3,20.8c-0.6-1.4-3.6-2.3-5.6-3.1S15,16.3,15,15.6c0-0.1,0-0.2,0-0.3c0.6-0.5,1.1-1.1,1.4-1.8
	c0,0,0,0,0-0.1c0.1-0.2,0.1-0.7,0.2-0.9c0.5-0.1,0.7-0.6,0.8-1c0.1-0.2,0.3-0.6,0.3-1.1c-0.1-0.6-0.3-0.9-0.6-1.1c0,0,0-0.1,0-0.1
	c0.1-0.6,0.1-1.4-0.1-2.5c0-0.1,0.1-0.2,0.2-0.3c-0.2-0.2-0.3-0.7,0-1.2c-0.1,0-0.3-0.1-0.4-0.1C16.8,5,16.9,5,17,4.9
	c-0.1,0-0.2-0.1-0.3-0.1c0.1,0,0.2,0,0.3,0c-0.1-0.1-0.3-0.2-0.4-0.2c0.1,0,0.2,0,0.3-0.1c-0.5-0.4-0.7-0.7-0.7-1.2
	c-0.1,0.1-0.2,0.1-0.3,0.2c-0.1-0.4-0.1-0.3-0.2-0.8c0,0.1-0.1,0.2-0.1,0.2c-0.9-1.4-1.9-1.4-3.1-1.8c0.3,0.4,0.2,0.5,0,0.5
	c-1.8-0.6-1.9,0.9-3.1,0.7c0,0.2,0,0.3,0,0.5C9.1,2.6,9,2.6,8.9,2.6c0,0.1,0,0.2,0.1,0.3c-0.2,0-0.3,0-0.5,0C8.5,2.9,8.6,3,8.7,3.1
	C8.5,3.1,8.4,3.1,8.2,3c0.1,0.1,0.1,0.3,0.2,0.4C8.2,3.4,8,3.4,7.7,3.3c0.2,0.2,0.4,0.3,0.6,0.5c-0.1,0-0.3,0-0.4,0
	C8,3.9,8,4,8.1,4.1C6.7,4.4,6.8,7.2,7,9c0,0.1,0,0.1,0,0.2c0,0,0,0.1,0,0.1c-0.3,0.1-0.6,0.4-0.7,1.1c0,0.5,0.2,0.9,0.3,1.1
	c0.1,0.5,0.4,0.9,0.8,1c0.1,0.2,0.1,0.7,0.2,0.9c0,0,0,0,0,0l0,0c0.3,0.7,0.8,1.4,1.4,1.9c0,0.1,0,0.2,0,0.3
	c-0.1,0.7,0.1,1.2-1.8,2.1c-2,0.9-5,1.8-5.6,3.1C1.1,22.2,1.3,23,1.3,23h21.3C22.7,23,22.9,22.2,22.3,20.8z"/>
</svg>
